<?xml version="1.0" encoding="UTF-8" standalone="no"?>
<svg
   xmlns:dc="http://purl.org/dc/elements/1.1/"
   xmlns:cc="http://creativecommons.org/ns#"
   xmlns:rdf="http://www.w3.org/1999/02/22-rdf-syntax-ns#"
   xmlns:svg="http://www.w3.org/2000/svg"
   xmlns="http://www.w3.org/2000/svg"
   xmlns:sodipodi="http://sodipodi.sourceforge.net/DTD/sodipodi-0.dtd"
   xmlns:inkscape="http://www.inkscape.org/namespaces/inkscape"
   inkscape:version="1.0beta1 (fe3e306, 2019-09-17)"
   sodipodi:docname="calendar.svg"
   xml:space="preserve"
   style="enable-background:new 0 0 512 512;"
   viewBox="0 0 512 512"
   y="0px"
   x="0px"
   id="Capa_1"
   version="1.1"><metadata
   id="metadata996">
  <rdf:RDF>
    <cc:Work
       rdf:about="">
      <dc:format>image/svg+xml</dc:format>
      <dc:type
         rdf:resource="http://purl.org/dc/dcmitype/StillImage" />
    </cc:Work>
  </rdf:RDF>
</metadata>
<defs
   id="defs994" />
<sodipodi:namedview
   inkscape:current-layer="Capa_1"
   inkscape:window-maximized="1"
   inkscape:window-y="-8"
   inkscape:window-x="1912"
   inkscape:cy="256"
   inkscape:cx="237.55932"
   inkscape:zoom="0.4609375"
   showgrid="false"
   id="namedview992"
   inkscape:window-height="1017"
   inkscape:window-width="1920"
   inkscape:pageshadow="2"
   inkscape:pageopacity="0"
   guidetolerance="10"
   gridtolerance="10"
   objecttolerance="10"
   borderopacity="1"
   inkscape:document-rotation="0"
   bordercolor="#666666"
   pagecolor="#ffffff" />

<g
   transform="matrix(0.8,0,0,0.8,51.2,51.2)"
   id="g959">
	<g
   id="g957">
		<g
   id="g955">
			<circle
   id="circle933"
   r="20"
   cy="210"
   cx="386" />

			<path
   inkscape:connector-curvature="0"
   id="path935"
   d="M 432,40 H 406 V 20 C 406,8.954 397.046,0 386,0 374.954,0 366,8.954 366,20 V 40 H 275 V 20 C 275,8.954 266.046,0 255,0 243.954,0 235,8.954 235,20 V 40 H 145 V 20 C 145,8.954 136.046,0 125,0 113.954,0 105,8.954 105,20 V 40 H 80 C 35.888,40 0,75.888 0,120 v 312 c 0,44.112 35.888,80 80,80 h 153 c 11.046,0 20,-8.954 20,-20 0,-11.046 -8.954,-20 -20,-20 H 80 C 57.944,472 40,454.056 40,432 V 120 C 40,97.944 57.944,80 80,80 h 25 v 20 c 0,11.046 8.954,20 20,20 11.046,0 20,-8.954 20,-20 V 80 h 90 v 20 c 0,11.046 8.954,20 20,20 11.046,0 20,-8.954 20,-20 V 80 h 91 v 20 c 0,11.046 8.954,20 20,20 11.046,0 20,-8.954 20,-20 V 80 h 26 c 22.056,0 40,17.944 40,40 v 114 c 0,11.046 8.954,20 20,20 11.046,0 20,-8.954 20,-20 V 120 C 512,75.888 476.112,40 432,40 Z" />

			<path
   inkscape:connector-curvature="0"
   id="path937"
   d="m 391,270 c -66.72,0 -121,54.28 -121,121 0,66.72 54.28,121 121,121 66.72,0 121,-54.28 121,-121 0,-66.72 -54.28,-121 -121,-121 z m 0,202 c -44.663,0 -81,-36.336 -81,-81 0,-44.664 36.337,-81 81,-81 44.663,0 81,36.336 81,81 0,44.664 -36.337,81 -81,81 z" />

			<path
   inkscape:connector-curvature="0"
   id="path939"
   d="m 420,371 h -9 v -21 c 0,-11.046 -8.954,-20 -20,-20 -11.046,0 -20,8.954 -20,20 v 41 c 0,11.046 8.954,20 20,20 h 29 c 11.046,0 20,-8.954 20,-20 0,-11.046 -8.954,-20 -20,-20 z" />

			<circle
   id="circle941"
   r="20"
   cy="210"
   cx="299" />

			<circle
   id="circle943"
   r="20"
   cy="297"
   cx="212" />

			<circle
   id="circle945"
   r="20"
   cy="210"
   cx="125" />

			<circle
   id="circle947"
   r="20"
   cy="297"
   cx="125" />

			<circle
   id="circle949"
   r="20"
   cy="384"
   cx="125" />

			<circle
   id="circle951"
   r="20"
   cy="384"
   cx="212" />

			<circle
   id="circle953"
   r="20"
   cy="210"
   cx="212" />

		</g>

	</g>

</g>

<g
   id="g961">
</g>

<g
   id="g963">
</g>

<g
   id="g965">
</g>

<g
   id="g967">
</g>

<g
   id="g969">
</g>

<g
   id="g971">
</g>

<g
   id="g973">
</g>

<g
   id="g975">
</g>

<g
   id="g977">
</g>

<g
   id="g979">
</g>

<g
   id="g981">
</g>

<g
   id="g983">
</g>

<g
   id="g985">
</g>

<g
   id="g987">
</g>

<g
   id="g989">
</g>

</svg>
