<svg width="13.2mm" height="5.82mm" version="1.1" viewBox="0 0 13.2 5.82" xmlns="http://www.w3.org/2000/svg" xmlns:xlink="http://www.w3.org/1999/xlink">
 <defs>
  <linearGradient id="linearGradient2998" x1="148" x2="148" y1="127" y2="132" gradientTransform="translate(-112 -65.5)" gradientUnits="userSpaceOnUse">
   <stop stop-color="#2828d7" stop-opacity=".997" offset="0"/>
   <stop stop-color="#9eeaff" offset=".5"/>
   <stop stop-color="#d38f20" stop-opacity=".992" offset=".55"/>
   <stop stop-color="#fffc91" offset=".95"/>
   <stop stop-color="#970" stop-opacity=".95" offset="1"/>
  </linearGradient>
  <linearGradient id="linearGradient3091" x1="170" x2="169" y1="138" y2="131" gradientTransform="translate(-131 -70.3)" gradientUnits="userSpaceOnUse">
   <stop stop-color="#20206f" stop-opacity=".761" offset="0"/>
   <stop stop-color="#cbcbcb" offset=".407"/>
   <stop stop-color="#9c9994" stop-opacity=".992" offset=".444"/>
   <stop stop-color="#6d6c3f" offset=".778"/>
   <stop stop-color="#A70" stop-opacity=".90" offset="1"/>
  </linearGradient>
 </defs>
 <g transform="translate(-29.7 -61.1)">
  <path d="m31.2 61.2h2.65v1.32h-2.12c-0.27-2e-3 -0.529 0.267-0.529 0.529v1.85c-4.79e-4 0.269 0.259 0.526 0.529 0.529h2.65l1.06-4.23h1.85l1.06 4.23h2.91c0.521-4e-3 0.531-0.789 0-0.794h-1.06c-0.789-5e-3 -1.33-0.519-1.32-1.32v-0.794c-5e-3 -0.796 0.501-1.31 1.32-1.32l2.65-1e-5v1.32h-2.38c-0.525 2e-3 -0.522 0.792 0 0.794h1.06c0.773 3e-3 1.32 0.533 1.32 1.32v0.794c2e-3 0.797-0.517 1.31-1.32 1.32l-4.23-1.1e-5 -0.529-2.12h-0.794l-0.529 2.12-4.23 1.1e-5c-0.79-5e-3 -1.33-0.521-1.32-1.32v-2.91c0-0.794 0.529-1.32 1.32-1.32z" fill="url(#linearGradient2998)" stroke="url(#linearGradient3091)" stroke-width=".265px"/>
 </g>
</svg>
